<svg width="24" height="24" viewBox="0 0 24 24" fill="none" xmlns="http://www.w3.org/2000/svg">
<g clip-path="url(#clip0_402_34)">
<path d="M21 22H3V21C3 16.99 7.035 14 12 14C16.965 14 21 16.99 21 21V22ZM12 16C8.479 16 5.763 17.743 5.137 20H18.863C18.237 17.743 15.521 16 12 16ZM12 12C10.6739 12 9.40215 11.4732 8.46447 10.5355C7.52678 9.59785 7 8.32608 7 7C7 5.67392 7.52678 4.40215 8.46447 3.46447C9.40215 2.52678 10.6739 2 12 2C13.3261 2 14.5979 2.52678 15.5355 3.46447C16.4732 4.40215 17 5.67392 17 7C17 8.32608 16.4732 9.59785 15.5355 10.5355C14.5979 11.4732 13.3261 12 12 12ZM12 10C12.394 10 12.7841 9.9224 13.1481 9.77164C13.512 9.62087 13.8427 9.3999 14.1213 9.12132C14.3999 8.84274 14.6209 8.51203 14.7716 8.14805C14.9224 7.78407 15 7.39397 15 7C15 6.60603 14.9224 6.21593 14.7716 5.85195C14.6209 5.48797 14.3999 5.15726 14.1213 4.87868C13.8427 4.6001 13.512 4.37913 13.1481 4.22836C12.7841 4.0776 12.394 4 12 4C11.2044 4 10.4413 4.31607 9.87868 4.87868C9.31607 5.44129 9 6.20435 9 7C9 7.79565 9.31607 8.55871 9.87868 9.12132C10.4413 9.68393 11.2044 10 12 10Z" fill="black"/>
</g>
<defs>
<clipPath id="clip0_402_34">
<rect width="24" height="24" fill="white"/>
</clipPath>
</defs>
</svg>
