<svg width="22" height="22" viewBox="0 0 22 22" fill="none" xmlns="http://www.w3.org/2000/svg">
<g clip-path="url(#clip0_22_260)">
<path d="M20.7853 1.2003e-06H1.21388C0.891936 1.2003e-06 0.583182 0.127891 0.355536 0.355537C0.12789 0.583183 0 0.891937 0 1.21388L0 20.7853C-7.95135e-08 21.1073 0.127863 21.4161 0.355484 21.6439C0.583105 21.8717 0.891857 21.9998 1.21388 22H11.7512V13.4807H8.88383V10.1583H11.7512V7.71178C11.7512 4.87002 13.4858 3.32237 16.0194 3.32237C16.8748 3.31916 17.7297 3.36305 18.5803 3.45383V6.42279H16.8252C15.4466 6.42279 15.1794 7.07838 15.1794 8.03958V10.1583H18.4676L18.0408 13.479H15.1811V21.9983H20.787C21.1091 21.9983 21.4181 21.8703 21.6459 21.6425C21.8737 21.4147 22.0017 21.1057 22.0017 20.7836V1.21388C22.0016 1.05428 21.97 0.896278 21.9088 0.748888C21.8476 0.601497 21.758 0.467611 21.645 0.354881C21.532 0.242151 21.398 0.152787 21.2505 0.091895C21.1029 0.0310029 20.9449 -0.000223143 20.7853 1.2003e-06Z" fill="white"/>
</g>
<defs>
<clipPath id="clip0_22_260">
<rect width="22" height="22" fill="white"/>
</clipPath>
</defs>
</svg>
