<svg width="22" height="22" viewBox="0 0 22 22" fill="none" xmlns="http://www.w3.org/2000/svg">
<g clip-path="url(#clip0_22_258)">
<path d="M22 4.17696C21.1904 4.53592 20.3207 4.77857 19.4077 4.88766C20.3395 4.32907 21.0552 3.44456 21.3922 2.39055C20.5062 2.91637 19.5369 3.2868 18.526 3.48581C17.7027 2.60861 16.5296 2.06055 15.2314 2.06055C12.7388 2.06055 10.7179 4.08132 10.7179 6.57392C10.7179 6.92768 10.7578 7.27216 10.8348 7.60255C7.08363 7.41426 3.75782 5.6174 1.5317 2.88662C1.14318 3.55323 0.920559 4.32856 0.920559 5.15575C0.920559 6.72169 1.71737 8.10322 2.92848 8.91262C2.21177 8.89018 1.51082 8.6966 0.884165 8.34805C0.883735 8.36687 0.883735 8.38578 0.883735 8.40481C0.883735 10.5917 2.43958 12.4158 4.50431 12.8306C4.11673 12.936 3.71685 12.9892 3.3152 12.989C3.02434 12.989 2.74161 12.9606 2.46597 12.9079C3.04037 14.701 4.70721 16.0061 6.6823 16.0424C5.13758 17.2531 3.19141 17.9746 1.07671 17.9746C0.712376 17.9746 0.353116 17.9533 0 17.9114C1.99744 19.1921 4.36995 19.9393 6.91884 19.9393C15.2208 19.9393 19.7608 13.0617 19.7608 7.09724C19.7608 6.90156 19.7563 6.70691 19.7477 6.5133C20.6296 5.87697 21.3949 5.08205 22 4.17696Z" fill="white"/>
</g>
<defs>
<clipPath id="clip0_22_258">
<rect width="22" height="22" fill="white"/>
</clipPath>
</defs>
</svg>
