<svg width="14" height="7" viewBox="0 0 14 7" fill="none" xmlns="http://www.w3.org/2000/svg">
<path d="M7.5008 6.343L13.2598 0.792996C13.3047 0.750738 13.3404 0.699754 13.3648 0.643176C13.3893 0.586598 13.4019 0.525623 13.4019 0.463996C13.4019 0.402369 13.3893 0.341394 13.3648 0.284816C13.3404 0.228238 13.3047 0.177254 13.2598 0.134996C13.1671 0.0478087 13.0446 -0.000732422 12.9173 -0.000732422C12.79 -0.000732422 12.6675 0.0478087 12.5748 0.134996L7.1548 5.355L1.7348 0.134996C1.64207 0.0478087 1.51958 -0.000732422 1.3923 -0.000732422C1.26501 -0.000732422 1.14253 0.0478087 1.0498 0.134996C1.00494 0.177254 0.969197 0.228238 0.944768 0.284816C0.920339 0.341394 0.907736 0.402369 0.907736 0.463996C0.907736 0.525623 0.920339 0.586598 0.944768 0.643176C0.969197 0.699754 1.00494 0.750738 1.0498 0.792996L6.8108 6.343C6.90358 6.43047 7.02628 6.4792 7.1538 6.4792C7.28131 6.4792 7.40401 6.43047 7.4968 6.343H7.5008Z" fill="black"/>
</svg>
